<svg width="1238" height="1435" viewBox="0 0 1238 1435" fill="none" xmlns="http://www.w3.org/2000/svg">
<path fill-rule="evenodd" clip-rule="evenodd" d="M1235.48 171.425L1235.65 180.744C1237.73 294.479 1237.73 453.977 1237.21 584.961C1236.95 650.47 1236.56 708.876 1236.23 750.906C1236.07 771.921 1235.92 788.843 1235.82 800.512C1235.77 806.346 1235.72 810.868 1235.69 813.931C1235.68 815.462 1235.67 816.629 1235.66 817.413C1235.66 817.805 1235.65 818.102 1235.65 818.301C1235.65 818.4 1235.65 818.475 1235.65 818.525V818.596L1223.15 818.474L1235.65 818.601L1235.64 819.66L1235.45 820.704C1174.55 1156.58 859.336 1350.35 622.611 1432.78L618.5 1434.21L614.39 1432.78C377.652 1350.35 62.9482 1156.58 2.05319 820.704L1.86373 819.66L1.85299 818.601L14.353 818.474L1.85299 818.596C1.85296 818.593 1.85305 818.587 1.85299 818.581C1.85286 818.568 1.85226 818.55 1.85201 818.525C1.85151 818.475 1.85106 818.4 1.85006 818.301C1.84807 818.102 1.84516 817.805 1.84127 817.413C1.8335 816.629 1.82185 815.462 1.80709 813.931C1.77757 810.868 1.73502 806.346 1.68209 800.512C1.57624 788.843 1.42988 771.921 1.26705 750.906C0.941409 708.876 0.550053 650.47 0.289514 584.961C-0.23143 453.977 -0.232153 294.479 1.85397 180.744L2.02487 171.427L618.499 0L1235.48 171.425ZM26.687 190.518C24.7713 303.239 24.7827 457.434 25.2895 584.861C25.5499 650.332 25.9406 708.706 26.2661 750.713C26.4288 771.716 26.5754 788.626 26.6811 800.285C26.734 806.115 26.7766 810.631 26.8061 813.689C26.8209 815.219 26.8326 816.384 26.8403 817.166C26.8406 817.201 26.8409 817.236 26.8413 817.27C85.3575 1136.89 385.065 1325.47 618.5 1407.73C851.953 1325.47 1152.14 1136.89 1210.66 817.27C1210.66 817.236 1210.66 817.201 1210.66 817.166C1210.66 816.937 1210.67 816.676 1210.67 816.383C1210.68 815.672 1210.68 814.772 1210.69 813.689C1210.72 810.631 1210.77 806.115 1210.82 800.285C1210.93 788.626 1211.07 771.716 1211.23 750.713C1211.56 708.706 1211.95 650.332 1212.21 584.861C1212.72 457.435 1212.73 303.241 1210.81 190.52L618.5 25.9473L26.687 190.518Z" fill="#D2B03F"/>
<path d="M26.687 190.518C24.7713 303.239 24.7827 457.434 25.2895 584.861C25.5499 650.332 25.9406 708.706 26.2661 750.713C26.4288 771.716 26.5754 788.626 26.6811 800.285C26.734 806.115 26.7766 810.631 26.8061 813.689C26.8209 815.219 26.8326 816.384 26.8403 817.166L26.8413 817.27C85.3575 1136.89 385.065 1325.47 618.5 1407.73C851.953 1325.47 1152.14 1136.89 1210.66 817.27C1210.66 817.236 1210.66 817.201 1210.66 817.166L1210.67 816.383C1210.68 815.672 1210.68 814.772 1210.69 813.689C1210.72 810.631 1210.77 806.115 1210.82 800.285C1210.93 788.626 1211.07 771.716 1211.23 750.713C1211.56 708.706 1211.95 650.332 1212.21 584.861C1212.72 457.435 1212.73 303.241 1210.81 190.52L618.5 25.9473L26.687 190.518Z" fill="white"/>
<path d="M990.277 298.687V893.841C975.102 893.841 960.321 893.611 945.539 893.841C870.158 895.349 794.973 898.79 720.411 910.818C688.98 915.898 657.909 922.617 627.593 936.513V926.943C627.593 760.885 627.593 594.762 627.593 428.573C627.42 426.082 627.915 423.59 629.027 421.355C630.139 419.119 631.828 417.221 633.918 415.856C713.659 357.157 801.069 316.287 899.786 302.194C928.202 298.13 957.338 299.244 986.18 298.031C987.561 298.14 988.931 298.359 990.277 298.687Z" fill="#D2B03F"/>
<path d="M609.796 936.678C578.072 922.546 544.312 913.52 509.768 909.934C462.092 904.231 414.263 899.795 366.281 896.627C328.59 894.136 290.899 894.431 252.946 893.349C251.111 893.349 249.308 893.087 247.08 892.923V298.621C267.891 298.621 288.441 297.081 308.728 298.851C418.261 308.421 514.848 351.29 602.815 415.529C605.063 416.883 606.909 418.811 608.164 421.115C609.42 423.419 610.04 426.016 609.96 428.638C609.742 595.308 609.742 761.967 609.96 928.615L609.796 936.678Z" fill="#D2B03F"/>
<path d="M161.67 988.232V434.341H183.793V944.543C183.793 960.079 185.104 961.39 201.098 961.39H1037.6C1051.73 961.39 1053.34 959.784 1053.34 945.461V434.177H1075V988.068L161.67 988.232Z" fill="#D2B03F"/>
<path d="M662.302 940.643C684.95 936.12 707.433 930.811 730.212 927.173C800.021 916.324 870.421 912.981 940.919 911.605C959.568 911.244 978.184 911.179 996.833 910.917C1005.52 910.917 1008.3 908.032 1008.57 899.249C1008.57 897.118 1008.57 894.955 1008.57 892.694V357.026H1034.79V943.33H662.761L662.302 940.643Z" fill="#D2B03F"/>
<path d="M202.081 943.069V357.255H228.825V894.759C228.825 909.835 229.939 910.917 244.819 910.95C320.725 911.179 396.599 913.178 472.013 922.552C503.772 926.518 535.137 933.794 566.666 939.595C569.364 940.071 571.906 941.196 574.073 942.872L202.081 943.069Z" fill="#D2B03F"/>
</svg>
