<svg width="1238" height="1435" viewBox="0 0 1238 1435" fill="none" xmlns="http://www.w3.org/2000/svg">
<path d="M484.616 890.1C481.948 864.973 473.218 845.429 458.426 831.47C443.633 817.51 424.645 810.53 401.461 810.53C387.693 810.445 374.089 813.535 361.696 819.562C349.103 825.737 337.989 834.575 329.115 845.471C319.349 857.505 311.892 871.255 307.121 886.024C301.804 901.844 299.141 919.652 299.132 939.447C299.132 964.574 303.93 986.798 313.526 1006.12C323.122 1025.44 336.048 1040.43 352.304 1051.1C368.298 1061.73 387.089 1067.32 406.268 1067.16C423.984 1067.07 441.458 1063.02 457.426 1055.31C473.906 1047.69 488.102 1035.84 498.593 1020.97L509 1029.35C497.542 1045.17 485.149 1057.35 471.82 1065.91C459.654 1073.97 446.199 1079.88 432.041 1083.37C420.212 1086.27 408.093 1087.82 395.917 1087.99C377.052 1088.21 358.345 1084.52 340.966 1077.14C324.637 1070.15 309.932 1059.83 297.784 1046.82C285.569 1033.7 276.059 1018.27 269.801 1001.44C263.156 983.522 259.836 964.53 260.006 945.408C259.974 926.597 262.876 907.897 268.607 889.988C274.178 872.345 282.918 855.875 294.394 841.395C306.078 826.752 320.901 814.947 337.757 806.859C355.208 798.288 375.53 794.002 398.724 794.002C413.067 793.92 427.344 795.952 441.1 800.033C454.747 804.206 467.685 810.433 479.475 818.501L477.475 796.808H499.052V889.988L484.616 890.1Z" fill="#373737"/>
<path d="M963.987 882.563C963.707 866.053 962.02 852.335 958.926 841.408C955.831 830.482 950.419 822.292 942.689 816.839C934.949 811.376 923.769 808.784 909.149 809.063H873.296L872.875 1038.01C872.875 1045.57 872.805 1052.08 872.665 1057.55C872.585 1062.12 872.229 1066.68 871.599 1071.21L889.112 1070.35L906.611 1069.52V1088H807.479V1074.14C818.163 1073.58 825.408 1071.06 829.212 1066.59C833.017 1062.11 835.125 1056.02 835.536 1048.31C835.956 1040.62 836.167 1032.02 836.167 1022.49L836.587 809.538L793.121 809.956C775.36 809.956 762.843 815.838 755.571 827.602C748.298 839.366 744.643 857.705 744.606 882.619H729L731.524 794H977.462L980 882.619L963.987 882.563Z" fill="#373737"/>
<path d="M784 561.099C794.612 560.541 801.873 558.098 805.783 553.772C809.693 549.445 811.857 543.444 812.276 535.768C812.695 528.091 812.904 519.368 812.904 509.599V328.663C812.904 323.08 813.044 317.721 813.323 312.543C813.602 307.365 813.882 302.773 814.161 298.586L799.08 299.424L784 300.261V281.838C798.801 281.568 814.021 281.359 829.66 281.21C845.299 281.061 861.217 280.992 877.415 281.001C904.485 281.001 927.245 284.071 945.696 290.212C964.146 296.353 978.249 305.425 988.005 317.428C997.779 329.431 1003.09 344.365 1003.92 362.229C1004.39 373.801 1002.75 385.362 999.105 396.353C995.382 408.235 988.4 419.401 978.16 429.85C967.921 440.299 953.608 448.743 935.223 455.181C916.791 461.611 893.193 464.821 864.429 464.811H858.145C855.208 464.826 852.271 464.686 849.348 464.393V525.105C849.348 532.641 849.279 539.154 849.139 544.644C849.064 549.197 848.714 553.741 848.092 558.252C852.546 557.987 856.889 557.694 861.078 557.415C865.267 557.135 869.456 556.94 873.854 556.786C878.253 556.633 882.442 556.438 886.631 556.158V575H784V561.099ZM849.348 447.212C854.641 447.784 859.193 448.119 862.963 448.259C866.733 448.398 871.341 448.468 876.577 448.468C891.624 448.657 906.519 445.436 920.143 439.047C932.893 433.092 943.761 423.75 951.56 412.041C959.37 400.317 963.28 386.36 963.289 370.171C963.289 357.051 961.195 345.816 957.006 336.465C953.132 327.513 946.997 319.722 939.203 313.855C930.977 307.897 921.651 303.628 911.765 301.294C900.242 298.538 888.425 297.203 876.577 297.316C866.784 297.316 860.012 299.41 856.26 303.597C852.49 307.784 850.396 313.59 849.977 320.973C849.558 328.356 849.348 337.093 849.348 347.142V447.212Z" fill="#373737"/>
<path d="M460.82 331.21V512.799C456.19 512.799 451.68 512.729 447.17 512.799C424.17 513.259 401.23 514.31 378.48 517.98C368.89 519.53 359.41 521.58 350.16 525.82V522.899C350.16 472.233 350.16 421.546 350.16 370.84C350.107 370.08 350.258 369.319 350.597 368.637C350.937 367.955 351.452 367.376 352.09 366.96C376.42 349.05 403.09 336.58 433.21 332.28C441.88 331.04 450.77 331.38 459.57 331.01C459.991 331.043 460.409 331.11 460.82 331.21Z" fill="#373737"/>
<path d="M344.73 525.87C335.05 521.558 324.749 518.804 314.21 517.71C299.663 515.97 285.07 514.616 270.43 513.65C258.93 512.89 247.43 512.98 235.85 512.65C235.29 512.65 234.74 512.57 234.06 512.52V331.19C240.41 331.19 246.68 330.72 252.87 331.26C286.29 334.18 315.76 347.26 342.6 366.86C343.285 367.273 343.849 367.861 344.232 368.564C344.615 369.267 344.804 370.059 344.78 370.86C344.713 421.713 344.713 472.563 344.78 523.41L344.73 525.87Z" fill="#373737"/>
<path d="M208 541.6V372.6H214.75V528.27C214.75 533.01 215.15 533.41 220.03 533.41H475.26C479.57 533.41 480.06 532.92 480.06 528.55V372.55H486.67V541.55L208 541.6Z" fill="#373737"/>
<path d="M360.75 527.079C367.66 525.699 374.52 524.079 381.47 522.969C402.77 519.659 424.25 518.639 445.76 518.219C451.45 518.109 457.13 518.09 462.82 518.01C465.47 518.01 466.32 517.129 466.4 514.449C466.4 513.799 466.4 513.139 466.4 512.449V349.01H474.4V527.899H360.89L360.75 527.079Z" fill="#373737"/>
<path d="M220.33 527.82V349.08H228.49V513.08C228.49 517.68 228.83 518.01 233.37 518.02C256.53 518.09 279.68 518.7 302.69 521.56C312.38 522.77 321.95 524.99 331.57 526.76C332.393 526.905 333.169 527.248 333.83 527.76L220.33 527.82Z" fill="#373737"/>
<path fill-rule="evenodd" clip-rule="evenodd" d="M1133.79 262.026L1133.96 271.347C1135.69 365.883 1135.69 498.44 1135.26 607.284C1135.04 661.723 1134.72 710.26 1134.45 745.188C1134.31 762.651 1134.19 776.713 1134.1 786.41C1134.06 791.258 1134.02 795.016 1134 797.562C1133.99 798.834 1133.98 799.805 1133.97 800.457C1133.97 800.783 1133.96 801.029 1133.96 801.194C1133.96 801.277 1133.96 801.339 1133.96 801.381V801.439L1121.46 801.316L1133.96 801.443L1133.95 802.504L1133.76 803.548C1085.29 1070.79 843.898 1229.95 650.773 1303.61C639.979 1307.85 629.305 1311.82 618.79 1315.53L614.938 1314.16C605.68 1310.85 596.304 1307.34 586.836 1303.62C393.732 1229.96 152.714 1070.79 104.24 803.548L104.05 802.504L104.04 801.443L116.54 801.316L104.04 801.439V801.381C104.039 801.339 104.038 801.277 104.038 801.194C104.036 801.029 104.033 800.783 104.03 800.457C104.023 799.805 104.014 798.834 104.001 797.562C103.977 795.016 103.942 791.258 103.898 786.41C103.81 776.713 103.688 762.651 103.552 745.188C103.552 745.097 103.551 745.007 103.55 744.916H103.499L103.307 718.485C103.111 690.179 102.909 656.51 102.754 619.915H102.793C102.775 615.743 102.757 611.532 102.74 607.284C102.307 498.44 102.307 365.883 104.041 271.347L104.212 262.028L618.79 119L1133.79 262.026ZM580.749 159.437V644.915H127.912C128.051 672.582 128.213 697.989 128.368 719.916H580.749V1274.23C585.877 1276.34 590.982 1278.39 596.059 1280.38C603.708 1283.3 611.29 1286.08 618.791 1288.73C626.345 1286.06 633.981 1283.26 641.685 1280.32C646.351 1278.49 651.04 1276.61 655.749 1274.68V719.916H1109.49C1109.64 697.856 1109.8 672.463 1109.94 644.915H655.749V159.123L618.796 148.861L580.749 159.437ZM680.749 744.916V1264.49C861.97 1186.65 1065.56 1036.65 1108.97 800.111C1108.98 799.464 1108.99 798.529 1109 797.321C1109.02 794.78 1109.06 791.027 1109.1 786.184C1109.19 776.496 1109.31 762.445 1109.45 744.993C1109.45 744.967 1109.45 744.942 1109.45 744.916H680.749ZM128.551 744.993C128.687 762.445 128.809 776.496 128.897 786.184C128.941 791.027 128.976 794.78 129 797.321C129.012 798.529 129.021 799.464 129.028 800.111C172.353 1036.18 374.886 1186.04 555.749 1264.02V744.916H128.55C128.55 744.942 128.551 744.967 128.551 744.993ZM680.749 619.915H1110.2C1110.22 615.711 1110.24 611.466 1110.26 607.185C1110.68 501.892 1110.69 374.623 1109.13 281.123L680.749 162.152V619.915ZM128.873 281.121C127.307 374.621 127.321 501.891 127.74 607.185C127.757 611.466 127.776 615.711 127.794 619.915H555.749V162.469L128.873 281.121Z" fill="#373737"/>
<path fill-rule="evenodd" clip-rule="evenodd" d="M1235.48 171.425L1235.65 180.744C1237.73 294.479 1237.73 453.977 1237.21 584.961C1236.95 650.47 1236.56 708.876 1236.23 750.906C1236.07 771.921 1235.92 788.843 1235.82 800.512C1235.77 806.346 1235.72 810.868 1235.69 813.931C1235.68 815.462 1235.67 816.629 1235.66 817.413C1235.66 817.805 1235.65 818.102 1235.65 818.301C1235.65 818.4 1235.65 818.475 1235.65 818.525V818.596L1223.15 818.474L1235.65 818.601L1235.64 819.66L1235.45 820.704C1174.55 1156.58 859.336 1350.35 622.611 1432.78L618.5 1434.21L614.39 1432.78C377.652 1350.35 62.9482 1156.58 2.05319 820.704L1.86373 819.66L1.85299 818.601L14.353 818.474L1.85299 818.596C1.85296 818.593 1.85305 818.587 1.85299 818.581C1.85286 818.569 1.85226 818.55 1.85201 818.525C1.85151 818.475 1.85106 818.4 1.85006 818.301C1.84807 818.102 1.84516 817.805 1.84127 817.413C1.8335 816.629 1.82185 815.462 1.80709 813.931C1.77757 810.868 1.73502 806.346 1.68209 800.512C1.57624 788.843 1.42988 771.921 1.26705 750.906C0.941409 708.876 0.550053 650.47 0.289514 584.961C-0.23143 453.977 -0.232153 294.479 1.85397 180.744L2.02487 171.427L618.499 0L1235.48 171.425ZM26.687 190.518C24.7713 303.239 24.7827 457.434 25.2895 584.861C25.5499 650.332 25.9406 708.706 26.2661 750.713C26.4288 771.716 26.5754 788.626 26.6811 800.285C26.734 806.114 26.7766 810.631 26.8061 813.689C26.8209 815.219 26.8325 816.384 26.8403 817.166C26.8406 817.201 26.8409 817.236 26.8413 817.27C85.3575 1136.89 385.065 1325.47 618.5 1407.73C851.953 1325.47 1152.14 1136.89 1210.66 817.27C1210.66 817.236 1210.66 817.201 1210.66 817.166C1210.67 816.384 1210.68 815.219 1210.69 813.689C1210.72 810.631 1210.77 806.114 1210.82 800.285C1210.93 788.626 1211.07 771.716 1211.23 750.713C1211.56 708.706 1211.95 650.332 1212.21 584.861C1212.72 457.435 1212.73 303.241 1210.81 190.52L618.5 25.9473L26.687 190.518Z" fill="#373737"/>
</svg>
